<svg width="100.6" height="89.6" viewBox="-50 -50 200 200" xmlns="http://www.w3.org/2000/svg">
    <g id="svgGroup" stroke-linecap="round" fill-rule="evenodd" font-size="9pt"
       stroke="#687553" stroke-width="0.25mm" fill="#f4f4f4"
       style="stroke:#687553;stroke-width:0.25mm;fill:#f4f4f4">

        <path d="M 48 -38 L 110 0 L 110 90 L 48 125 L -14 90 L -14 0 L 48 -38" fill="#687553" stroke="#3d3f33"/>
        <path d="M 38.8 2 L 38.8 0 Q 40.679 0.089 43.597 0.179 A 569.544 569.544 0 0 0 44.3 0.2 Q 47.7 0.3 51 0.3 Q 55.7 0.3 60 0.2 A 703.938 703.938 0 0 1 61.994 0.156 Q 64.459 0.106 65.8 0.101 A 76.038 76.038 0 0 1 66.1 0.1 Q 72.378 0.1 77.004 1.482 A 23.39 23.39 0 0 1 79.55 2.4 Q 84.9 4.7 87.55 8.65 Q 90.2 12.6 90.2 17.5 A 17.084 17.084 0 0 1 89.82 21.002 A 22.68 22.68 0 0 1 89 23.9 A 16.075 16.075 0 0 1 86.69 28.166 A 20.717 20.717 0 0 1 84.85 30.3 A 18.256 18.256 0 0 1 81.425 32.999 Q 79.771 34.023 77.752 34.869 A 32.675 32.675 0 0 1 76.8 35.25 A 26.456 26.456 0 0 1 72.211 36.513 Q 69.911 36.942 67.24 37.103 A 55.521 55.521 0 0 1 63.9 37.2 L 54.3 37.2 L 54.3 35.2 L 62.9 35.2 Q 69.829 35.2 73.568 33.057 A 10.621 10.621 0 0 0 73.75 32.95 A 12.64 12.64 0 0 0 76.82 30.418 A 10.831 10.831 0 0 0 78.85 26.95 A 22.736 22.736 0 0 0 80.037 21.696 A 28.556 28.556 0 0 0 80.2 18.6 A 26.754 26.754 0 0 0 79.796 13.798 Q 79.307 11.12 78.225 9.003 A 13.351 13.351 0 0 0 76.45 6.35 A 10.949 10.949 0 0 0 72.145 3.376 Q 70.325 2.645 68.027 2.302 A 30.093 30.093 0 0 0 63.6 2 A 19.669 19.669 0 0 0 61.741 2.081 Q 59.751 2.271 58.594 2.903 A 3.344 3.344 0 0 0 57.6 3.7 Q 56.201 5.398 56.2 10.59 A 38.214 38.214 0 0 0 56.2 10.6 L 56.2 60.2 A 34.704 34.704 0 0 0 56.247 62.083 Q 56.369 64.306 56.8 65.6 Q 57.395 67.384 59.119 67.989 A 4.521 4.521 0 0 0 59.15 68 Q 60.9 68.6 64.3 68.8 L 64.3 70.8 A 55.376 55.376 0 0 0 62.456 70.673 Q 60.733 70.582 58.55 70.55 Q 55.1 70.5 51.6 70.5 Q 47.7 70.5 44.3 70.55 Q 41.259 70.595 39.257 70.759 A 35.883 35.883 0 0 0 38.8 70.8 L 38.8 68.8 Q 41.747 68.627 43.454 68.153 A 8.723 8.723 0 0 0 43.95 68 A 3.554 3.554 0 0 0 46.132 66.031 A 4.55 4.55 0 0 0 46.3 65.6 Q 46.806 64.082 46.885 61.283 A 38.321 38.321 0 0 0 46.9 60.2 L 46.9 10.6 Q 46.9 6.9 46.3 5.15 Q 45.7 3.4 43.95 2.75 A 8.883 8.883 0 0 0 42.704 2.399 Q 41.144 2.069 38.8 2 Z M 0 89.6 L 0 87.7 A 16.545 16.545 0 0 0 3.539 87.26 A 11.986 11.986 0 0 0 7.55 85.5 A 10.019 10.019 0 0 0 10.153 82.82 Q 10.976 81.604 11.612 80.042 A 20.656 20.656 0 0 0 12.15 78.55 A 27.345 27.345 0 0 0 13.032 74.832 Q 13.366 72.874 13.533 70.566 A 69.072 69.072 0 0 0 13.7 65.6 L 13.7 10.6 Q 13.7 6.9 13.1 5.15 Q 12.5 3.4 10.75 2.75 A 8.883 8.883 0 0 0 9.504 2.399 Q 7.944 2.069 5.6 2 L 5.6 0 Q 7.479 0.089 10.397 0.179 A 569.544 569.544 0 0 0 11.1 0.2 A 234.309 234.309 0 0 0 16.369 0.294 A 265.574 265.574 0 0 0 18.2 0.3 A 250.238 250.238 0 0 0 24.484 0.223 A 225.256 225.256 0 0 0 25.35 0.2 Q 28.8 0.1 31.1 0 L 31.1 2 Q 27.7 2.1 25.95 2.75 A 3.941 3.941 0 0 0 24.524 3.638 A 3.849 3.849 0 0 0 23.6 5.15 Q 23 6.9 23 10.6 L 23 47.2 Q 23 51.3 22.9 56.1 A 165.967 165.967 0 0 1 22.534 64.27 A 151.273 151.273 0 0 1 22.45 65.4 Q 22.1 69.9 21.3 73.3 Q 19.6 80.3 14.15 84.95 A 18.952 18.952 0 0 1 5.597 89.051 A 27.115 27.115 0 0 1 0 89.6 Z M 54.9 37.2 L 54.7 35.5 Q 58.834 35.653 61.621 35.836 A 105.472 105.472 0 0 1 63.2 35.95 Q 65.973 36.174 67.826 36.357 A 124.512 124.512 0 0 1 68.25 36.4 Q 70.2 36.6 72 36.9 Q 78.7 38 81.65 40.95 Q 83.824 43.124 85.156 47.062 A 30.365 30.365 0 0 1 86 50.1 L 88.5 60.3 Q 89.292 63.786 90.116 65.735 A 10.856 10.856 0 0 0 90.55 66.65 Q 91.549 68.505 93.588 68.505 A 4.667 4.667 0 0 0 93.8 68.5 A 5.194 5.194 0 0 0 95.295 68.2 A 4.319 4.319 0 0 0 96.65 67.4 Q 97.8 66.4 99.1 64.7 L 100.6 65.8 A 24.95 24.95 0 0 1 98.886 68.06 Q 97.595 69.564 96.25 70.55 A 7.629 7.629 0 0 1 93.951 71.671 Q 92.925 71.985 91.689 72.113 A 17.426 17.426 0 0 1 89.9 72.2 Q 86.2 72.2 83.4 70 A 7.908 7.908 0 0 1 81.659 68.02 Q 80.124 65.625 79.2 61.4 L 77 51.4 A 68.172 68.172 0 0 0 76.165 47.858 Q 75.739 46.256 75.268 44.859 A 38.032 38.032 0 0 0 74.95 43.95 A 14.379 14.379 0 0 0 73.784 41.472 A 10.342 10.342 0 0 0 71.75 39 A 6.518 6.518 0 0 0 69.492 37.738 Q 68.514 37.41 67.32 37.282 A 15.202 15.202 0 0 0 65.7 37.2 L 54.9 37.2 Z" vector-effect="non-scaling-stroke" stroke="#f4f4f4" stroke-width="0.19mm"/>


        <circle cx="48" cy="-38" r="5" stroke="#3d3f33" stroke-width="0.5mm"/>
        <circle cx="48" cy="125" r="5" stroke="#3d3f33" stroke-width="0.5mm"/>

        <circle cx="110" cy="0" r="5" stroke="#3d3f33" stroke-width="0.5mm"/>
        <circle cx="110" cy="90" r="5" stroke="#3d3f33" stroke-width="0.5mm"/>

        <circle cx="-14" cy="0" r="5" stroke="#3d3f33" stroke-width="0.5mm"/>
        <circle cx="-14" cy="90" r="5" stroke="#3d3f33" stroke-width="0.5mm"/>

    </g>
</svg>