<svg xmlns="http://www.w3.org/2000/svg" viewBox="54.5 -3 91 626">      <!-- Main vertical line with alternating left and right routing -->     <path d="M100 0 L100 20 L60 60 L60 100 L100 140 L100 180 L140 220 L140 260 L100 300              L100 340 L60 380 L60 420 L100 460 L100 500 L140 540 L140 580 L100 620" stroke="#3d3f33" stroke-width="4" fill="none"></path>      <!-- Connections to boxes -->     <path d="M60 80 L80 80" stroke="#3d3f33" stroke-width="4" fill="none"></path>     <path d="M140 240 L120 240" stroke="#3d3f33" stroke-width="4" fill="none"></path>     <path d="M60 400 L80 400" stroke="#3d3f33" stroke-width="4" fill="none"></path>     <path d="M140 560 L120 560" stroke="#3d3f33" stroke-width="4" fill="none"></path>      <!-- Connections to leaves -->     <path d="M100 140 L136.5 176.5" stroke="#3d3f33" stroke-width="4" fill="none"></path>     <path d="M100 300 L60 260 L60 225" stroke="#3d3f33" stroke-width="4" fill="none"></path>     <path d="M100 460 L136.5 423.5" stroke="#3d3f33" stroke-width="4" fill="none"></path>     <path d="M100 620 L63.5 583.5" stroke="#3d3f33" stroke-width="4" fill="none"></path>      <!-- Leaves -->     <circle cx="140" cy="180" r="5" stroke="#3d3f33" fill="none"></circle>     <circle cx="60" cy="220" r="5" stroke="#3d3f33" fill="none"></circle>     <circle cx="140" cy="420" r="5" stroke="#3d3f33" fill="none"></circle>     <circle cx="60" cy="580" r="5" stroke="#3d3f33" fill="none"></circle>      <!-- Square boxes -->     <rect x="80" y="60" width="40" height="40" fill="none" stroke="#3d3f33" stroke-width="2"></rect>     <rect x="80" y="220" width="40" height="40" fill="none" stroke="#3d3f33" stroke-width="2"></rect>     <rect x="80" y="380" width="40" height="40" fill="none" stroke="#3d3f33" stroke-width="2"></rect>     <rect x="80" y="540" width="40" height="40" fill="none" stroke="#3d3f33" stroke-width="2"></rect>      <!-- Dots -->     <circle cx="100" cy="0" r="3" fill="#3d3f33"></circle>     <circle cx="100" cy="620" r="3" fill="#3d3f33"></circle>     <circle cx="60" cy="80" r="3" fill="#3d3f33"></circle>     <circle cx="140" cy="240" r="3" fill="#3d3f33"></circle>     <circle cx="60" cy="400" r="3" fill="#3d3f33"></circle>     <circle cx="140" cy="560" r="3" fill="#3d3f33"></circle> </svg>